# xmcd
#
# Track frame offsets:
# 150
# 14508
# 26735
# 40896
# 54421
# 67015
# 84674
# 101260
# 118980
# 137661
# 157764
# 178583
# 194105
# 213028
# 233079
# 245348
# 267409
#
# Disc length: 3775 seconds
#
#
# Revision: 0
# Processed by: cddbd v1.5.1PL0 Copyright (c) Steve Scherf et al.
# Submitted via: FreeRIP 2.942 
#
DISCID=eb0ebd11
DTITLE=Country Love 1
DYEAR=2005
DGENRE=Country
TTITLE0=If Said You Had A Beautiful Body
TTITLE1=The Most Beautiful In The World
TTITLE2=A Good Year For The Roses
TTITLE3=It's Four In The Morning
TTITLE4=Right Time Of The Night
TTITLE5=Love Can Build A Bridge
TTITLE6=Constant Craving
TTITLE7=Come Around
TTITLE8=How Do I Live
TTITLE9=Amazed
TTITLE10=Right In Time
TTITLE11=Indepedence Day
TTITLE12=From A Distance
TTITLE13=Sometimes Love Just Ain't Enough
TTITLE14=Crazy
TTITLE15=From This Moment On
TTITLE16=Always On My Mind
EXTD=
EXTT0=
EXTT1=
EXTT2=
EXTT3=
EXTT4=
EXTT5=
EXTT6=
EXTT7=
EXTT8=
EXTT9=
EXTT10=
EXTT11=
EXTT12=
EXTT13=
EXTT14=
EXTT15=
EXTT16=
PLAYORDER=
